<mxfile host="app.diagrams.net" agent="Mozilla/5.0 (Windows NT 10.0; Win64; x64; rv:129.0) Gecko/20100101 Firefox/129.0" version="24.7.6">
  <diagram name="第 1 页" id="N_vS8PIz4FS4sFoRzCdH">
    <mxGraphModel dx="1007" dy="411" grid="1" gridSize="10" guides="1" tooltips="1" connect="1" arrows="1" fold="1" page="1" pageScale="1" pageWidth="827" pageHeight="1169" math="0" shadow="0">
      <root>
        <mxCell id="0" />
        <mxCell id="1" parent="0" />
        <mxCell id="ughO3RlTtdYjqtD--1Ve-1" value="" style="whiteSpace=wrap;html=1;aspect=fixed;" vertex="1" parent="1">
          <mxGeometry x="210" y="40" width="390" height="390" as="geometry" />
        </mxCell>
        <mxCell id="ughO3RlTtdYjqtD--1Ve-3" value="" style="endArrow=none;html=1;rounded=0;exitX=1;exitY=0.25;exitDx=0;exitDy=0;entryX=0;entryY=0.25;entryDx=0;entryDy=0;" edge="1" parent="1">
          <mxGeometry width="50" height="50" relative="1" as="geometry">
            <mxPoint x="600" y="110" as="sourcePoint" />
            <mxPoint x="210" y="110" as="targetPoint" />
          </mxGeometry>
        </mxCell>
        <mxCell id="ughO3RlTtdYjqtD--1Ve-5" value="&lt;font style=&quot;font-size: 18px;&quot;&gt;首頁&lt;/font&gt;" style="rounded=1;whiteSpace=wrap;html=1;fillColor=#66FFFF;" vertex="1" parent="1">
          <mxGeometry x="240" y="70" width="70" height="40" as="geometry" />
        </mxCell>
        <mxCell id="ughO3RlTtdYjqtD--1Ve-6" value="F-001" style="rounded=1;whiteSpace=wrap;html=1;" vertex="1" parent="1">
          <mxGeometry x="225" y="170" width="70" height="40" as="geometry" />
        </mxCell>
        <mxCell id="ughO3RlTtdYjqtD--1Ve-7" value="&lt;font style=&quot;font-size: 18px;&quot;&gt;歷史&lt;/font&gt;" style="rounded=1;whiteSpace=wrap;html=1;" vertex="1" parent="1">
          <mxGeometry x="510" y="70" width="70" height="40" as="geometry" />
        </mxCell>
        <mxCell id="ughO3RlTtdYjqtD--1Ve-8" value="&lt;div&gt;&lt;font style=&quot;font-size: 14px;&quot;&gt;bypass&lt;/font&gt;&lt;/div&gt;&lt;div&gt;&lt;font size=&quot;3&quot;&gt;/復原&lt;/font&gt;&lt;/div&gt;" style="rounded=1;whiteSpace=wrap;html=1;" vertex="1" parent="1">
          <mxGeometry x="420" y="70" width="70" height="40" as="geometry" />
        </mxCell>
        <mxCell id="ughO3RlTtdYjqtD--1Ve-9" value="&lt;div align=&quot;left&quot;&gt;&lt;font style=&quot;font-size: 18px;&quot;&gt;目前Bypass的偵測器：&lt;/font&gt;&lt;/div&gt;" style="rounded=0;whiteSpace=wrap;html=1;align=left;strokeColor=none;" vertex="1" parent="1">
          <mxGeometry x="220" y="120" width="230" height="40" as="geometry" />
        </mxCell>
        <mxCell id="ughO3RlTtdYjqtD--1Ve-11" value="F-008" style="rounded=1;whiteSpace=wrap;html=1;" vertex="1" parent="1">
          <mxGeometry x="225" y="230" width="70" height="40" as="geometry" />
        </mxCell>
        <mxCell id="ughO3RlTtdYjqtD--1Ve-12" value="F-008" style="rounded=1;whiteSpace=wrap;html=1;" vertex="1" parent="1">
          <mxGeometry x="510" y="170" width="70" height="40" as="geometry" />
        </mxCell>
        <mxCell id="ughO3RlTtdYjqtD--1Ve-13" value="F-002" style="rounded=1;whiteSpace=wrap;html=1;" vertex="1" parent="1">
          <mxGeometry x="320" y="170" width="70" height="40" as="geometry" />
        </mxCell>
        <mxCell id="ughO3RlTtdYjqtD--1Ve-14" value="F-005" style="rounded=1;whiteSpace=wrap;html=1;" vertex="1" parent="1">
          <mxGeometry x="414" y="170" width="70" height="40" as="geometry" />
        </mxCell>
        <mxCell id="ughO3RlTtdYjqtD--1Ve-15" value="&lt;font style=&quot;font-size: 18px;&quot;&gt;新增&lt;/font&gt;" style="rounded=1;whiteSpace=wrap;html=1;" vertex="1" parent="1">
          <mxGeometry x="330" y="70" width="70" height="40" as="geometry" />
        </mxCell>
        <mxCell id="ughO3RlTtdYjqtD--1Ve-17" value="&lt;div align=&quot;left&quot;&gt;&lt;font style=&quot;font-size: 18px;&quot;&gt;目前施工：&lt;/font&gt;&lt;/div&gt;" style="rounded=0;whiteSpace=wrap;html=1;align=left;strokeColor=none;" vertex="1" parent="1">
          <mxGeometry x="220" y="290" width="230" height="40" as="geometry" />
        </mxCell>
        <mxCell id="ughO3RlTtdYjqtD--1Ve-18" value="廠區大門焊接作業" style="rounded=1;whiteSpace=wrap;html=1;" vertex="1" parent="1">
          <mxGeometry x="225" y="330" width="105" height="40" as="geometry" />
        </mxCell>
        <mxCell id="ughO3RlTtdYjqtD--1Ve-19" value="果汁生產區管線焊接作業" style="rounded=1;whiteSpace=wrap;html=1;" vertex="1" parent="1">
          <mxGeometry x="345" y="330" width="105" height="40" as="geometry" />
        </mxCell>
      </root>
    </mxGraphModel>
  </diagram>
</mxfile>
